<mxfile host="app.diagrams.net" agent="Mozilla/5.0 (Windows NT 10.0; Win64; x64) AppleWebKit/537.36 (KHTML, like Gecko) Chrome/128.0.0.0 Safari/537.36" version="24.7.14" pages="2">
  <diagram name="xdm" id="bqRqYgNJxH10T0RP_icS">
    <mxGraphModel dx="1313" dy="1278" grid="0" gridSize="10" guides="1" tooltips="1" connect="1" arrows="1" fold="1" page="0" pageScale="1" pageWidth="827" pageHeight="1169" math="0" shadow="0">
      <root>
        <mxCell id="0" />
        <mxCell id="1" parent="0" />
        <mxCell id="bwGKS7NITxqUm5VlcVO4-1" value="ora" style="whiteSpace=wrap;html=1;shape=doubleEllipse;perimeter=ellipsePerimeter;" vertex="1" parent="1">
          <mxGeometry x="315" y="111" width="120" height="80" as="geometry" />
        </mxCell>
        <mxCell id="bwGKS7NITxqUm5VlcVO4-3" value="targy" style="ellipse;whiteSpace=wrap;html=1;" vertex="1" parent="1">
          <mxGeometry x="24" y="282" width="120" height="80" as="geometry" />
        </mxCell>
        <mxCell id="bwGKS7NITxqUm5VlcVO4-4" value="idopont" style="ellipse;whiteSpace=wrap;html=1;" vertex="1" parent="1">
          <mxGeometry x="160" y="282" width="120" height="80" as="geometry" />
        </mxCell>
        <mxCell id="bwGKS7NITxqUm5VlcVO4-5" value="helyszin" style="ellipse;whiteSpace=wrap;html=1;" vertex="1" parent="1">
          <mxGeometry x="315" y="282" width="120" height="80" as="geometry" />
        </mxCell>
        <mxCell id="bwGKS7NITxqUm5VlcVO4-6" value="oktato" style="ellipse;whiteSpace=wrap;html=1;fontStyle=1" vertex="1" parent="1">
          <mxGeometry x="462" y="282" width="120" height="80" as="geometry" />
        </mxCell>
        <mxCell id="bwGKS7NITxqUm5VlcVO4-7" value="szak" style="ellipse;whiteSpace=wrap;html=1;fontStyle=1" vertex="1" parent="1">
          <mxGeometry x="617" y="282" width="120" height="80" as="geometry" />
        </mxCell>
        <mxCell id="bwGKS7NITxqUm5VlcVO4-9" value="" style="endArrow=none;html=1;rounded=0;fontSize=12;startSize=8;endSize=8;curved=1;exitX=0.5;exitY=0;exitDx=0;exitDy=0;entryX=0;entryY=1;entryDx=0;entryDy=0;" edge="1" parent="1" source="bwGKS7NITxqUm5VlcVO4-3" target="bwGKS7NITxqUm5VlcVO4-1">
          <mxGeometry width="50" height="50" relative="1" as="geometry">
            <mxPoint x="271" y="300" as="sourcePoint" />
            <mxPoint x="321" y="250" as="targetPoint" />
          </mxGeometry>
        </mxCell>
        <mxCell id="bwGKS7NITxqUm5VlcVO4-11" value="" style="endArrow=none;html=1;rounded=0;fontSize=12;startSize=8;endSize=8;curved=1;exitX=0.5;exitY=0;exitDx=0;exitDy=0;entryX=0.5;entryY=1;entryDx=0;entryDy=0;" edge="1" parent="1" source="bwGKS7NITxqUm5VlcVO4-4" target="bwGKS7NITxqUm5VlcVO4-1">
          <mxGeometry width="50" height="50" relative="1" as="geometry">
            <mxPoint x="564" y="300" as="sourcePoint" />
            <mxPoint x="614" y="250" as="targetPoint" />
          </mxGeometry>
        </mxCell>
        <mxCell id="bwGKS7NITxqUm5VlcVO4-12" value="" style="endArrow=none;html=1;rounded=0;fontSize=12;startSize=8;endSize=8;curved=1;exitX=0.5;exitY=0;exitDx=0;exitDy=0;entryX=0.5;entryY=1;entryDx=0;entryDy=0;" edge="1" parent="1" source="bwGKS7NITxqUm5VlcVO4-5" target="bwGKS7NITxqUm5VlcVO4-1">
          <mxGeometry width="50" height="50" relative="1" as="geometry">
            <mxPoint x="564" y="300" as="sourcePoint" />
            <mxPoint x="614" y="250" as="targetPoint" />
          </mxGeometry>
        </mxCell>
        <mxCell id="bwGKS7NITxqUm5VlcVO4-13" value="" style="endArrow=none;html=1;rounded=0;fontSize=12;startSize=8;endSize=8;curved=1;exitX=0.5;exitY=0;exitDx=0;exitDy=0;entryX=0.5;entryY=1;entryDx=0;entryDy=0;" edge="1" parent="1" source="bwGKS7NITxqUm5VlcVO4-6" target="bwGKS7NITxqUm5VlcVO4-1">
          <mxGeometry width="50" height="50" relative="1" as="geometry">
            <mxPoint x="564" y="300" as="sourcePoint" />
            <mxPoint x="614" y="250" as="targetPoint" />
          </mxGeometry>
        </mxCell>
        <mxCell id="bwGKS7NITxqUm5VlcVO4-14" value="" style="endArrow=none;html=1;rounded=0;fontSize=12;startSize=8;endSize=8;curved=1;exitX=0.5;exitY=0;exitDx=0;exitDy=0;entryX=1;entryY=1;entryDx=0;entryDy=0;" edge="1" parent="1" source="bwGKS7NITxqUm5VlcVO4-7" target="bwGKS7NITxqUm5VlcVO4-1">
          <mxGeometry width="50" height="50" relative="1" as="geometry">
            <mxPoint x="564" y="300" as="sourcePoint" />
            <mxPoint x="614" y="250" as="targetPoint" />
          </mxGeometry>
        </mxCell>
        <mxCell id="bwGKS7NITxqUm5VlcVO4-15" value="nap" style="ellipse;whiteSpace=wrap;html=1;" vertex="1" parent="1">
          <mxGeometry x="108" y="501" width="88.5" height="59" as="geometry" />
        </mxCell>
        <mxCell id="bwGKS7NITxqUm5VlcVO4-16" value="tol" style="ellipse;whiteSpace=wrap;html=1;" vertex="1" parent="1">
          <mxGeometry x="196.5" y="501" width="88.5" height="59" as="geometry" />
        </mxCell>
        <mxCell id="bwGKS7NITxqUm5VlcVO4-17" value="ig" style="ellipse;whiteSpace=wrap;html=1;" vertex="1" parent="1">
          <mxGeometry x="285" y="501" width="88.5" height="59" as="geometry" />
        </mxCell>
        <mxCell id="bwGKS7NITxqUm5VlcVO4-22" value="" style="endArrow=none;html=1;rounded=0;fontSize=12;startSize=8;endSize=8;curved=1;exitX=0.5;exitY=0;exitDx=0;exitDy=0;entryX=0.5;entryY=1;entryDx=0;entryDy=0;" edge="1" parent="1" source="bwGKS7NITxqUm5VlcVO4-16" target="bwGKS7NITxqUm5VlcVO4-4">
          <mxGeometry width="50" height="50" relative="1" as="geometry">
            <mxPoint x="47" y="518" as="sourcePoint" />
            <mxPoint x="257" y="389" as="targetPoint" />
          </mxGeometry>
        </mxCell>
        <mxCell id="bwGKS7NITxqUm5VlcVO4-23" value="" style="endArrow=none;html=1;rounded=0;fontSize=12;startSize=8;endSize=8;curved=1;entryX=0.5;entryY=0;entryDx=0;entryDy=0;exitX=0.5;exitY=1;exitDx=0;exitDy=0;" edge="1" parent="1" source="bwGKS7NITxqUm5VlcVO4-4" target="bwGKS7NITxqUm5VlcVO4-15">
          <mxGeometry width="50" height="50" relative="1" as="geometry">
            <mxPoint x="112" y="556" as="sourcePoint" />
            <mxPoint x="162" y="506" as="targetPoint" />
          </mxGeometry>
        </mxCell>
        <mxCell id="bwGKS7NITxqUm5VlcVO4-24" value="" style="endArrow=none;html=1;rounded=0;fontSize=12;startSize=8;endSize=8;curved=1;exitX=0.5;exitY=0;exitDx=0;exitDy=0;entryX=0.5;entryY=1;entryDx=0;entryDy=0;" edge="1" parent="1" source="bwGKS7NITxqUm5VlcVO4-17" target="bwGKS7NITxqUm5VlcVO4-4">
          <mxGeometry width="50" height="50" relative="1" as="geometry">
            <mxPoint x="195" y="560" as="sourcePoint" />
            <mxPoint x="287" y="374" as="targetPoint" />
          </mxGeometry>
        </mxCell>
        <mxCell id="bwGKS7NITxqUm5VlcVO4-25" value="" style="rounded=0;whiteSpace=wrap;html=1;rotation=90;" vertex="1" parent="1">
          <mxGeometry x="57" y="404" width="54" height="31" as="geometry" />
        </mxCell>
        <mxCell id="bwGKS7NITxqUm5VlcVO4-26" value="" style="endArrow=none;html=1;rounded=0;fontSize=12;startSize=8;endSize=8;curved=1;exitX=0;exitY=0.5;exitDx=0;exitDy=0;entryX=0.5;entryY=1;entryDx=0;entryDy=0;" edge="1" parent="1" source="bwGKS7NITxqUm5VlcVO4-25" target="bwGKS7NITxqUm5VlcVO4-3">
          <mxGeometry width="50" height="50" relative="1" as="geometry">
            <mxPoint x="270.5" y="313" as="sourcePoint" />
            <mxPoint x="80.5" y="365" as="targetPoint" />
          </mxGeometry>
        </mxCell>
        <mxCell id="bwGKS7NITxqUm5VlcVO4-28" value="" style="rounded=0;whiteSpace=wrap;html=1;rotation=90;" vertex="1" parent="1">
          <mxGeometry x="125.25" y="607.5" width="54" height="31" as="geometry" />
        </mxCell>
        <mxCell id="bwGKS7NITxqUm5VlcVO4-29" value="" style="endArrow=none;html=1;rounded=0;fontSize=12;startSize=8;endSize=8;curved=1;exitX=0;exitY=0.5;exitDx=0;exitDy=0;" edge="1" parent="1" source="bwGKS7NITxqUm5VlcVO4-28" target="bwGKS7NITxqUm5VlcVO4-15">
          <mxGeometry width="50" height="50" relative="1" as="geometry">
            <mxPoint x="342.75" y="508" as="sourcePoint" />
            <mxPoint x="152.75" y="560" as="targetPoint" />
          </mxGeometry>
        </mxCell>
        <mxCell id="bwGKS7NITxqUm5VlcVO4-30" value="" style="rounded=0;whiteSpace=wrap;html=1;rotation=90;" vertex="1" parent="1">
          <mxGeometry x="213.75" y="607.5" width="54" height="31" as="geometry" />
        </mxCell>
        <mxCell id="bwGKS7NITxqUm5VlcVO4-31" value="" style="endArrow=none;html=1;rounded=0;fontSize=12;startSize=8;endSize=8;curved=1;exitX=0;exitY=0.5;exitDx=0;exitDy=0;" edge="1" parent="1" source="bwGKS7NITxqUm5VlcVO4-30" target="bwGKS7NITxqUm5VlcVO4-16">
          <mxGeometry width="50" height="50" relative="1" as="geometry">
            <mxPoint x="431.25" y="508" as="sourcePoint" />
            <mxPoint x="241.25" y="560" as="targetPoint" />
          </mxGeometry>
        </mxCell>
        <mxCell id="bwGKS7NITxqUm5VlcVO4-32" value="" style="rounded=0;whiteSpace=wrap;html=1;rotation=90;" vertex="1" parent="1">
          <mxGeometry x="302.25" y="607.5" width="54" height="31" as="geometry" />
        </mxCell>
        <mxCell id="bwGKS7NITxqUm5VlcVO4-33" value="" style="endArrow=none;html=1;rounded=0;fontSize=12;startSize=8;endSize=8;curved=1;exitX=0;exitY=0.5;exitDx=0;exitDy=0;entryX=0.5;entryY=1;entryDx=0;entryDy=0;" edge="1" source="bwGKS7NITxqUm5VlcVO4-32" parent="1" target="bwGKS7NITxqUm5VlcVO4-17">
          <mxGeometry width="50" height="50" relative="1" as="geometry">
            <mxPoint x="513.5" y="508" as="sourcePoint" />
            <mxPoint x="322.25" y="560" as="targetPoint" />
          </mxGeometry>
        </mxCell>
        <mxCell id="bwGKS7NITxqUm5VlcVO4-34" value="" style="rounded=0;whiteSpace=wrap;html=1;rotation=90;" vertex="1" parent="1">
          <mxGeometry x="348" y="404" width="54" height="31" as="geometry" />
        </mxCell>
        <mxCell id="bwGKS7NITxqUm5VlcVO4-35" value="" style="endArrow=none;html=1;rounded=0;fontSize=12;startSize=8;endSize=8;curved=1;exitX=0;exitY=0.5;exitDx=0;exitDy=0;" edge="1" source="bwGKS7NITxqUm5VlcVO4-34" parent="1" target="bwGKS7NITxqUm5VlcVO4-5">
          <mxGeometry width="50" height="50" relative="1" as="geometry">
            <mxPoint x="559.25" y="304.5" as="sourcePoint" />
            <mxPoint x="376.0037429833835" y="384.45009355488764" as="targetPoint" />
          </mxGeometry>
        </mxCell>
        <mxCell id="bwGKS7NITxqUm5VlcVO4-36" value="" style="rounded=0;whiteSpace=wrap;html=1;rotation=90;" vertex="1" parent="1">
          <mxGeometry x="499" y="404" width="54" height="31" as="geometry" />
        </mxCell>
        <mxCell id="bwGKS7NITxqUm5VlcVO4-37" value="" style="endArrow=none;html=1;rounded=0;fontSize=12;startSize=8;endSize=8;curved=1;exitX=0;exitY=0.5;exitDx=0;exitDy=0;" edge="1" source="bwGKS7NITxqUm5VlcVO4-36" parent="1" target="bwGKS7NITxqUm5VlcVO4-6">
          <mxGeometry width="50" height="50" relative="1" as="geometry">
            <mxPoint x="710.25" y="304.5" as="sourcePoint" />
            <mxPoint x="526" y="384.5" as="targetPoint" />
          </mxGeometry>
        </mxCell>
        <mxCell id="bwGKS7NITxqUm5VlcVO4-38" value="" style="rounded=0;whiteSpace=wrap;html=1;rotation=90;" vertex="1" parent="1">
          <mxGeometry x="650" y="401" width="54" height="31" as="geometry" />
        </mxCell>
        <mxCell id="bwGKS7NITxqUm5VlcVO4-39" value="" style="endArrow=none;html=1;rounded=0;fontSize=12;startSize=8;endSize=8;curved=1;exitX=0;exitY=0.5;exitDx=0;exitDy=0;" edge="1" source="bwGKS7NITxqUm5VlcVO4-38" parent="1" target="bwGKS7NITxqUm5VlcVO4-7">
          <mxGeometry width="50" height="50" relative="1" as="geometry">
            <mxPoint x="720.25" y="314.5" as="sourcePoint" />
            <mxPoint x="681.9998611398803" y="384.4944455952159" as="targetPoint" />
            <Array as="points" />
          </mxGeometry>
        </mxCell>
        <mxCell id="bwGKS7NITxqUm5VlcVO4-40" value="id" style="rhombus;whiteSpace=wrap;html=1;fontStyle=4" vertex="1" parent="1">
          <mxGeometry x="183.75" y="111" width="80" height="80" as="geometry" />
        </mxCell>
        <mxCell id="bwGKS7NITxqUm5VlcVO4-41" value="gyakorlat" style="rhombus;whiteSpace=wrap;html=1;" vertex="1" parent="1">
          <mxGeometry x="486" y="111" width="80" height="80" as="geometry" />
        </mxCell>
        <mxCell id="bwGKS7NITxqUm5VlcVO4-44" value="" style="endArrow=none;html=1;rounded=0;fontSize=12;startSize=8;endSize=8;curved=1;exitX=0;exitY=0.5;exitDx=0;exitDy=0;entryX=1;entryY=0.5;entryDx=0;entryDy=0;" edge="1" parent="1" source="bwGKS7NITxqUm5VlcVO4-41" target="bwGKS7NITxqUm5VlcVO4-1">
          <mxGeometry width="50" height="50" relative="1" as="geometry">
            <mxPoint x="323" y="305" as="sourcePoint" />
            <mxPoint x="373" y="255" as="targetPoint" />
          </mxGeometry>
        </mxCell>
        <mxCell id="KEErFl2x-pu-iBxss9mC-2" value="PA_orarend" style="ellipse;whiteSpace=wrap;html=1;" vertex="1" parent="1">
          <mxGeometry x="315" y="-60" width="120" height="80" as="geometry" />
        </mxCell>
        <mxCell id="KEErFl2x-pu-iBxss9mC-3" value="" style="endArrow=none;html=1;rounded=0;fontSize=12;startSize=8;endSize=8;curved=1;" edge="1" parent="1" source="bwGKS7NITxqUm5VlcVO4-1" target="KEErFl2x-pu-iBxss9mC-2">
          <mxGeometry width="50" height="50" relative="1" as="geometry">
            <mxPoint x="663" y="247" as="sourcePoint" />
            <mxPoint x="713" y="197" as="targetPoint" />
          </mxGeometry>
        </mxCell>
        <mxCell id="cjkI-0EM8EegCV0AG9MY-1" value="" style="endArrow=none;html=1;rounded=0;fontSize=12;startSize=8;endSize=8;curved=1;" edge="1" parent="1" source="bwGKS7NITxqUm5VlcVO4-1" target="bwGKS7NITxqUm5VlcVO4-40">
          <mxGeometry width="50" height="50" relative="1" as="geometry">
            <mxPoint x="84" y="191" as="sourcePoint" />
            <mxPoint x="134" y="141" as="targetPoint" />
          </mxGeometry>
        </mxCell>
      </root>
    </mxGraphModel>
  </diagram>
  <diagram id="ouJUXT59m7gnz4oLP1eE" name="ER">
    <mxGraphModel dx="1567" dy="724" grid="0" gridSize="10" guides="1" tooltips="1" connect="1" arrows="1" fold="1" page="0" pageScale="1" pageWidth="827" pageHeight="1169" math="0" shadow="0">
      <root>
        <mxCell id="0" />
        <mxCell id="1" parent="0" />
        <mxCell id="XOpchMOrXZ3kGnesqjSk-4" value="" style="edgeStyle=orthogonalEdgeStyle;rounded=0;orthogonalLoop=1;jettySize=auto;html=1;endArrow=none;endFill=0;startArrow=classic;startFill=1;" edge="1" parent="1" source="oZ1xjrPCw6t7B0WSxTvu-1" target="XOpchMOrXZ3kGnesqjSk-3">
          <mxGeometry relative="1" as="geometry" />
        </mxCell>
        <mxCell id="oZ1xjrPCw6t7B0WSxTvu-1" value="PA_orarend" style="rounded=0;whiteSpace=wrap;html=1;" parent="1" vertex="1">
          <mxGeometry x="83" y="45" width="120" height="60" as="geometry" />
        </mxCell>
        <mxCell id="XOpchMOrXZ3kGnesqjSk-7" value="" style="rounded=0;orthogonalLoop=1;jettySize=auto;html=1;startArrow=none;startFill=0;endArrow=none;endFill=0;" edge="1" parent="1" source="sHNlf9EbvDKW46YBC1w3-2" target="XOpchMOrXZ3kGnesqjSk-6">
          <mxGeometry relative="1" as="geometry" />
        </mxCell>
        <mxCell id="sHNlf9EbvDKW46YBC1w3-2" value="ora" style="rounded=0;whiteSpace=wrap;html=1;" parent="1" vertex="1">
          <mxGeometry x="83" y="297" width="120" height="60" as="geometry" />
        </mxCell>
        <mxCell id="XKQRAOzj3E86PoO9VsMq-1" value="id" style="ellipse;whiteSpace=wrap;html=1;fontStyle=4" parent="1" vertex="1">
          <mxGeometry x="-87" y="287" width="120" height="80" as="geometry" />
        </mxCell>
        <mxCell id="XKQRAOzj3E86PoO9VsMq-3" value="" style="endArrow=none;html=1;rounded=0;fontSize=12;startSize=8;endSize=8;curved=1;" parent="1" source="XKQRAOzj3E86PoO9VsMq-1" target="sHNlf9EbvDKW46YBC1w3-2" edge="1">
          <mxGeometry relative="1" as="geometry">
            <mxPoint x="33" y="327" as="sourcePoint" />
            <mxPoint x="193" y="327" as="targetPoint" />
          </mxGeometry>
        </mxCell>
        <mxCell id="XKQRAOzj3E86PoO9VsMq-5" value="" style="rounded=0;orthogonalLoop=1;jettySize=auto;html=1;fontSize=12;startSize=8;endSize=8;endArrow=none;endFill=0;" parent="1" source="XKQRAOzj3E86PoO9VsMq-4" target="sHNlf9EbvDKW46YBC1w3-2" edge="1">
          <mxGeometry relative="1" as="geometry" />
        </mxCell>
        <mxCell id="XKQRAOzj3E86PoO9VsMq-4" value="tipus" style="ellipse;whiteSpace=wrap;html=1;fontStyle=0" parent="1" vertex="1">
          <mxGeometry x="253" y="287" width="120" height="80" as="geometry" />
        </mxCell>
        <mxCell id="XOpchMOrXZ3kGnesqjSk-5" value="" style="rounded=0;orthogonalLoop=1;jettySize=auto;html=1;endArrow=ERmany;endFill=0;" edge="1" parent="1" source="XOpchMOrXZ3kGnesqjSk-3" target="sHNlf9EbvDKW46YBC1w3-2">
          <mxGeometry relative="1" as="geometry" />
        </mxCell>
        <mxCell id="XOpchMOrXZ3kGnesqjSk-3" value="" style="rhombus;whiteSpace=wrap;html=1;rounded=0;" vertex="1" parent="1">
          <mxGeometry x="103" y="172" width="80" height="80" as="geometry" />
        </mxCell>
        <mxCell id="XOpchMOrXZ3kGnesqjSk-6" value="targy" style="ellipse;whiteSpace=wrap;html=1;rounded=0;" vertex="1" parent="1">
          <mxGeometry x="-121" y="445" width="132" height="80" as="geometry" />
        </mxCell>
        <mxCell id="XOpchMOrXZ3kGnesqjSk-19" value="" style="rounded=0;orthogonalLoop=1;jettySize=auto;html=1;endArrow=none;endFill=0;" edge="1" parent="1" source="XOpchMOrXZ3kGnesqjSk-10" target="XOpchMOrXZ3kGnesqjSk-18">
          <mxGeometry relative="1" as="geometry" />
        </mxCell>
        <mxCell id="XOpchMOrXZ3kGnesqjSk-10" value="idopont" style="ellipse;whiteSpace=wrap;html=1;rounded=0;" vertex="1" parent="1">
          <mxGeometry x="19" y="445" width="132" height="80" as="geometry" />
        </mxCell>
        <mxCell id="XOpchMOrXZ3kGnesqjSk-15" style="rounded=0;orthogonalLoop=1;jettySize=auto;html=1;exitX=0.5;exitY=0;exitDx=0;exitDy=0;startArrow=none;startFill=0;endArrow=none;endFill=0;entryX=0.5;entryY=1;entryDx=0;entryDy=0;" edge="1" parent="1" source="XOpchMOrXZ3kGnesqjSk-11" target="sHNlf9EbvDKW46YBC1w3-2">
          <mxGeometry relative="1" as="geometry">
            <mxPoint x="147" y="352" as="targetPoint" />
          </mxGeometry>
        </mxCell>
        <mxCell id="XOpchMOrXZ3kGnesqjSk-11" value="helyszin" style="ellipse;whiteSpace=wrap;html=1;rounded=0;" vertex="1" parent="1">
          <mxGeometry x="154" y="445" width="132" height="80" as="geometry" />
        </mxCell>
        <mxCell id="XOpchMOrXZ3kGnesqjSk-16" style="rounded=0;orthogonalLoop=1;jettySize=auto;html=1;exitX=0.5;exitY=0;exitDx=0;exitDy=0;startArrow=none;startFill=0;endArrow=none;endFill=0;entryX=0.5;entryY=1;entryDx=0;entryDy=0;" edge="1" parent="1" source="XOpchMOrXZ3kGnesqjSk-12" target="sHNlf9EbvDKW46YBC1w3-2">
          <mxGeometry relative="1" as="geometry" />
        </mxCell>
        <mxCell id="XOpchMOrXZ3kGnesqjSk-12" value="oktato" style="ellipse;whiteSpace=wrap;html=1;rounded=0;" vertex="1" parent="1">
          <mxGeometry x="289" y="445" width="132" height="80" as="geometry" />
        </mxCell>
        <mxCell id="XOpchMOrXZ3kGnesqjSk-17" style="rounded=0;orthogonalLoop=1;jettySize=auto;html=1;exitX=0.5;exitY=0;exitDx=0;exitDy=0;startArrow=none;startFill=0;endArrow=none;endFill=0;entryX=0.5;entryY=1;entryDx=0;entryDy=0;" edge="1" parent="1" source="XOpchMOrXZ3kGnesqjSk-13" target="sHNlf9EbvDKW46YBC1w3-2">
          <mxGeometry relative="1" as="geometry">
            <mxPoint x="146" y="351" as="targetPoint" />
          </mxGeometry>
        </mxCell>
        <mxCell id="XOpchMOrXZ3kGnesqjSk-13" value="szak" style="ellipse;whiteSpace=wrap;html=1;rounded=0;" vertex="1" parent="1">
          <mxGeometry x="421" y="445" width="132" height="80" as="geometry" />
        </mxCell>
        <mxCell id="XOpchMOrXZ3kGnesqjSk-14" style="rounded=0;orthogonalLoop=1;jettySize=auto;html=1;exitX=0.5;exitY=0;exitDx=0;exitDy=0;entryX=0.5;entryY=1;entryDx=0;entryDy=0;startArrow=none;startFill=0;endArrow=none;endFill=0;" edge="1" parent="1" source="XOpchMOrXZ3kGnesqjSk-10" target="sHNlf9EbvDKW46YBC1w3-2">
          <mxGeometry relative="1" as="geometry" />
        </mxCell>
        <mxCell id="XOpchMOrXZ3kGnesqjSk-18" value="nap" style="ellipse;whiteSpace=wrap;html=1;rounded=0;" vertex="1" parent="1">
          <mxGeometry x="-107" y="592" width="121" height="80" as="geometry" />
        </mxCell>
        <mxCell id="XOpchMOrXZ3kGnesqjSk-22" style="rounded=0;orthogonalLoop=1;jettySize=auto;html=1;exitX=0.5;exitY=0;exitDx=0;exitDy=0;endArrow=none;endFill=0;" edge="1" parent="1" source="XOpchMOrXZ3kGnesqjSk-20" target="XOpchMOrXZ3kGnesqjSk-10">
          <mxGeometry relative="1" as="geometry" />
        </mxCell>
        <mxCell id="XOpchMOrXZ3kGnesqjSk-20" value="tol" style="ellipse;whiteSpace=wrap;html=1;rounded=0;" vertex="1" parent="1">
          <mxGeometry x="24" y="592" width="121" height="80" as="geometry" />
        </mxCell>
        <mxCell id="XOpchMOrXZ3kGnesqjSk-23" style="rounded=0;orthogonalLoop=1;jettySize=auto;html=1;exitX=0.5;exitY=0;exitDx=0;exitDy=0;endArrow=none;endFill=0;" edge="1" parent="1" source="XOpchMOrXZ3kGnesqjSk-21" target="XOpchMOrXZ3kGnesqjSk-10">
          <mxGeometry relative="1" as="geometry" />
        </mxCell>
        <mxCell id="XOpchMOrXZ3kGnesqjSk-21" value="ig" style="ellipse;whiteSpace=wrap;html=1;rounded=0;" vertex="1" parent="1">
          <mxGeometry x="151" y="592" width="121" height="80" as="geometry" />
        </mxCell>
      </root>
    </mxGraphModel>
  </diagram>
</mxfile>
